<svg width="15" height="15" viewBox="0 0 15 15" fill="none" xmlns="http://www.w3.org/2000/svg">
<path d="M14.2075 7.19502C14.2075 6.54866 14.1514 6.02619 13.505 6.02619H8.36334V0.884501C8.36334 0.239307 7.84087 0.182034 7.19451 0.182034C6.54814 0.182034 6.02567 0.239307 6.02567 0.884501V6.02619H0.883986C0.238791 6.02619 0.181519 6.54866 0.181519 7.19502C0.181519 7.84138 0.238791 8.36385 0.883986 8.36385H6.02567V13.5055C6.02567 14.1519 6.54814 14.208 7.19451 14.208C7.84087 14.208 8.36334 14.1519 8.36334 13.5055V8.36385H13.505C14.1514 8.36385 14.2075 7.84138 14.2075 7.19502Z" fill="white"/>
</svg>
