<svg width="19" height="23" fill="none" xmlns="http://www.w3.org/2000/svg"><path d="M9.42 12.22H9.57a4.24 4.24 0 0 0 3.26-1.44c1.78-2.03 1.48-5.53 1.45-5.86-.12-2.5-1.28-3.7-2.24-4.26A5.08 5.08 0 0 0 9.54 0h-.07c-.51 0-1.52.08-2.49.64-.97.56-2.15 1.76-2.27 4.28-.03.33-.33 3.83 1.45 5.86.8.93 1.9 1.41 3.26 1.44ZM5.95 5.04V5c.15-3.37 2.5-3.73 3.52-3.73h.05c1.25.03 3.37.55 3.52 3.73v.04c0 .03.33 3.22-1.14 4.9-.58.67-1.36 1-2.38 1h-.05a3 3 0 0 1-2.38-1c-1.46-1.67-1.15-4.87-1.14-4.9Z" fill="#838384"/><path d="M19 18v-.12c-.03-.93-.1-3.1-2.1-3.8l-.05-.02a13.26 13.26 0 0 1-3.84-1.77.62.62 0 0 0-.87.16c-.2.28-.13.68.16.88.07.05 1.92 1.35 4.22 1.96 1.08.39 1.2 1.55 1.23 2.62v.12c0 .42-.02 1.08-.1 1.45-.74.43-3.68 1.93-8.15 1.93-4.45 0-7.4-1.5-8.16-1.93a8.18 8.18 0 0 1-.1-1.45l.01-.12c.03-1.07.15-2.24 1.23-2.63 2.3-.6 4.15-1.9 4.22-1.96.29-.2.36-.6.16-.88a.62.62 0 0 0-.87-.15 13.12 13.12 0 0 1-3.89 1.78c-2 .7-2.07 2.88-2.1 3.8V18c0 .25 0 1.5.24 2.13a.6.6 0 0 0 .24.3c.14.09 3.46 2.24 9.03 2.24 5.56 0 8.89-2.15 9.03-2.24.1-.07.19-.18.24-.3.23-.62.22-1.88.22-2.12Z" fill="#838384"/></svg>