<svg width="31" height="31" viewBox="0 0 31 31" fill="none" xmlns="http://www.w3.org/2000/svg">
<circle cx="15.5" cy="15.5" r="15" fill="#EBAA02" stroke="#EBAA02"/>
<path d="M15.5 6C12.7917 6 10.625 8.16667 10.625 10.875V13.0417C9.70417 13.0417 9 13.7458 9 14.6667V21.7083C9 22.6292 9.70417 23.3333 10.625 23.3333H20.375C21.2958 23.3333 22 22.6292 22 21.7083V14.6667C22 13.7458 21.2958 13.0417 20.375 13.0417V10.875C20.375 8.16667 18.2083 6 15.5 6ZM20.9167 14.6667V21.7083C20.9167 22.0333 20.7 22.25 20.375 22.25H10.625C10.3 22.25 10.0833 22.0333 10.0833 21.7083V14.6667C10.0833 14.3417 10.3 14.125 10.625 14.125H11.1667H19.8333H20.375C20.7 14.125 20.9167 14.3417 20.9167 14.6667ZM11.7083 13.0417V10.875C11.7083 8.7625 13.3875 7.08333 15.5 7.08333C17.6125 7.08333 19.2917 8.7625 19.2917 10.875V13.0417H11.7083Z" fill="white"/>
<path d="M15.5 15.75C14.5792 15.75 13.875 16.4542 13.875 17.375C13.875 18.0792 14.3083 18.675 14.9583 18.8917V20.0833C14.9583 20.4083 15.175 20.625 15.5 20.625C15.825 20.625 16.0417 20.4083 16.0417 20.0833V18.8917C16.6917 18.675 17.125 18.0792 17.125 17.375C17.125 16.4542 16.4208 15.75 15.5 15.75ZM15.5 17.9167C15.175 17.9167 14.9583 17.7 14.9583 17.375C14.9583 17.05 15.175 16.8333 15.5 16.8333C15.825 16.8333 16.0417 17.05 16.0417 17.375C16.0417 17.7 15.825 17.9167 15.5 17.9167Z" fill="white"/>
</svg>
