<svg width="31" height="31" viewBox="0 0 31 31" fill="none" xmlns="http://www.w3.org/2000/svg">
<circle cx="15.5" cy="15.5" r="15" fill="#A5A5A4" stroke="#A5A5A4"/>
<path d="M16.9981 16L21.793 11.2051C22.069 10.9291 22.069 10.483 21.793 10.207C21.517 9.931 21.0709 9.931 20.7949 10.207L16 15.0019L11.2051 10.207C10.9291 9.931 10.483 9.931 10.207 10.207C9.931 10.483 9.931 10.9291 10.207 11.2051L15.0019 16L10.207 20.7949C9.931 21.0709 9.931 21.517 10.207 21.793C10.3446 21.9306 10.5253 21.9998 10.706 21.9998C10.8867 21.9998 11.0674 21.9306 11.2051 21.793L16 16.9981L20.7949 21.793C20.9325 21.9306 21.1132 21.9998 21.2939 21.9998C21.4746 21.9998 21.6553 21.9306 21.793 21.793C22.069 21.517 22.069 21.0709 21.793 20.7949L16.9981 16Z" fill="white"/>
</svg>
