<svg width="13" height="15" viewBox="0 0 13 15" fill="none" xmlns="http://www.w3.org/2000/svg">
<g clip-path="url(#clip0_459_371)">
<path d="M2.72022 1.52258C2.75686 2.15984 2.63109 2.82536 3.12917 3.22194C3.33407 3.38467 3.60476 3.48211 3.8538 3.50842C4.27858 3.55324 4.63923 3.30672 4.79082 2.85459C4.92242 2.46191 4.92825 2.01173 4.99488 1.54986C5.98854 1.54986 7.00552 1.54986 8.05415 1.54986C8.08496 2.16179 7.96586 2.82439 8.45977 3.22194C8.663 3.38564 8.9362 3.48016 9.18524 3.50842C9.61168 3.55616 9.96983 3.30477 10.1231 2.85557C10.2564 2.46386 10.2622 2.01271 10.3263 1.57227C10.8419 1.57227 11.3866 1.49919 11.9097 1.59079C12.5277 1.69895 12.9875 2.42196 12.99 3.18102C12.9991 6.41117 13.0049 9.64133 12.9858 12.8715C12.9791 14.0213 12.1512 14.9801 11.1609 14.9859C8.05332 15.0045 4.94491 15.0045 1.8365 14.985C0.829518 14.9781 0.0107712 14.0008 0.00660668 12.8257C-0.0042211 9.62671 -0.000889475 6.42969 0.00743959 3.23169C0.00993831 2.27774 0.602968 1.57033 1.41505 1.52745C1.839 1.50407 2.26545 1.52258 2.72022 1.52258ZM6.49994 6.29912C4.91826 6.29912 3.33657 6.29814 1.75571 6.30009C1.19516 6.30106 1.08855 6.42189 1.08855 7.05623C1.08689 8.80918 1.08605 10.5621 1.08938 12.3151C1.09105 13.2018 1.4542 13.6237 2.21381 13.6247C5.07151 13.6266 7.92921 13.6257 10.7877 13.6247C11.5465 13.6247 11.9122 13.2018 11.9138 12.317C11.9172 10.5807 11.9155 8.84426 11.9147 7.1069C11.9138 6.41117 11.8164 6.30106 11.2042 6.30106C9.635 6.29912 8.06747 6.30009 6.49994 6.29912Z" fill="#008242"/>
<path d="M3.16502 1.47248C3.16418 1.22985 3.15252 0.985274 3.16752 0.743622C3.19417 0.288574 3.47319 -0.00764503 3.848 0.000150216C4.20448 0.00794546 4.48101 0.296369 4.496 0.728031C4.51432 1.24544 4.51516 1.76577 4.49767 2.28318C4.48184 2.7431 4.19949 3.03055 3.81885 3.02178C3.4532 3.01301 3.195 2.73823 3.16835 2.29877C3.15169 2.02399 3.16502 1.74823 3.16502 1.47248Z" fill="#008242"/>
<path d="M9.83411 1.50866C9.83411 1.76785 9.8466 2.02802 9.83161 2.28624C9.80496 2.74518 9.53176 3.03166 9.14946 3.02094C8.78631 3.01119 8.51812 2.73251 8.50312 2.29501C8.4848 1.7776 8.4848 1.25726 8.50312 0.739855C8.51812 0.286756 8.81047 -0.0104378 9.18361 0.00028064C9.54176 0.0109991 9.80496 0.297474 9.83161 0.731085C9.8466 0.989302 9.83327 1.24947 9.83411 1.50866Z" fill="#008242"/>
<path d="M5.70374 7.3252C6.3609 7.3252 6.98141 7.3252 7.66773 7.3252C7.66773 8.03651 7.66773 8.75075 7.66773 9.52638C7.03055 9.52638 6.39421 9.52638 5.70374 9.52638C5.70374 8.81993 5.70374 8.12518 5.70374 7.3252Z" fill="#008242"/>
<path d="M10.8337 7.33789C10.8337 8.09305 10.8337 8.76832 10.8337 9.51471C10.184 9.51471 9.54933 9.51471 8.84802 9.51471C8.84802 8.82191 8.84802 8.10864 8.84802 7.33789C9.49602 7.33789 10.1282 7.33789 10.8337 7.33789Z" fill="#008242"/>
<path d="M4.53431 7.34668C4.53431 8.10574 4.53431 8.79854 4.53431 9.53714C3.87798 9.53714 3.26329 9.53714 2.58447 9.53714C2.58447 8.82388 2.58447 8.11256 2.58447 7.34668C3.22998 7.34668 3.87964 7.34668 4.53431 7.34668Z" fill="#008242"/>
<path d="M5.70374 10.3467C6.3609 10.3467 6.98141 10.3467 7.66773 10.3467C7.66773 11.058 7.66773 11.7722 7.66773 12.5479C7.03055 12.5479 6.39421 12.5479 5.70374 12.5479C5.70374 11.8414 5.70374 11.1467 5.70374 10.3467Z" fill="#008242"/>
<path d="M10.8337 10.3594C10.8337 11.1145 10.8337 11.7898 10.8337 12.5362C10.184 12.5362 9.54933 12.5362 8.84802 12.5362C8.84802 11.8434 8.84802 11.1301 8.84802 10.3594C9.49602 10.3594 10.1282 10.3594 10.8337 10.3594Z" fill="#008242"/>
<path d="M4.53431 10.3672C4.53431 11.1262 4.53431 11.8191 4.53431 12.5577C3.87798 12.5577 3.26329 12.5577 2.58447 12.5577C2.58447 11.8444 2.58447 11.1331 2.58447 10.3672C3.22998 10.3672 3.87964 10.3672 4.53431 10.3672Z" fill="#008242"/>
</g>
<defs>
<clipPath id="clip0_459_371">
<rect width="13" height="15" fill="white"/>
</clipPath>
</defs>
</svg>
