<svg width="29" height="29" viewBox="0 0 29 29" fill="none" xmlns="http://www.w3.org/2000/svg">
<rect width="29" height="29" rx="14.5" fill="#808080"/>
<path d="M16.8752 15.0874C16.8752 16.4154 15.7948 17.4958 14.4667 17.4958C13.1387 17.4958 12.0587 16.4154 12.0587 15.0874C12.0587 13.7593 13.1387 12.6789 14.4667 12.6789C15.7948 12.6789 16.8752 13.7597 16.8752 15.0874ZM21.9335 11.6675V18.508C21.9335 19.4199 21.1941 20.1593 20.2822 20.1593H8.6513C7.73937 20.1593 7 19.4199 7 18.508V11.6675C7 10.7556 7.73937 10.0162 8.6513 10.0162H10.6824V9.44488C10.6824 8.64689 11.3289 8 12.1273 8H16.8062C17.6046 8 18.2511 8.64689 18.2511 9.44488V10.0158H20.2822C21.1941 10.0162 21.9335 10.7556 21.9335 11.6675ZM18.1136 15.0874C18.1136 13.0765 16.4776 11.4405 14.4667 11.4405C12.4563 11.4405 10.8203 13.0765 10.8203 15.0874C10.8203 17.0982 12.4563 18.7342 14.4667 18.7342C16.4776 18.7342 18.1136 17.0982 18.1136 15.0874Z" fill="white"/>
</svg>
