<svg width="31" height="31" viewBox="0 0 31 31" fill="none" xmlns="http://www.w3.org/2000/svg">
<circle cx="15.5" cy="15.5" r="15" fill="#DB3A3C" stroke="#DB3A3C"/>
<path d="M15.4222 15.3456C15.4222 13.7241 14.3792 12.3419 12.929 11.8338C13.1555 11.4568 13.457 11.124 13.812 10.862C13.9135 10.7871 13.9351 10.6441 13.8602 10.5425C13.7853 10.441 13.6422 10.4195 13.5407 10.4944C13.1038 10.8168 12.7382 11.2336 12.4749 11.7066C12.2655 11.6622 12.0498 11.6355 11.8291 11.6281C12.1606 10.9437 12.6628 10.3576 13.2956 9.92137C14.0291 9.41561 14.8884 9.1483 15.7807 9.1483C16.5263 9.1483 17.2632 9.33967 17.9119 9.70168C18.0011 9.75148 18.1126 9.73601 18.1848 9.66375L18.562 9.28663L18.6869 10.9124L17.0612 10.7874L17.3914 10.4572C17.4445 10.4041 17.4681 10.3282 17.4546 10.2543C17.441 10.1804 17.3919 10.118 17.3234 10.0872C16.8361 9.86848 16.317 9.75757 15.7807 9.75757C15.3394 9.75757 14.9069 9.8333 14.495 9.98272C14.3764 10.0257 14.3151 10.1568 14.3581 10.2754C14.4011 10.394 14.5322 10.4552 14.6508 10.4123C15.0126 10.281 15.3927 10.2145 15.7807 10.2145C16.1381 10.2145 16.4868 10.2705 16.821 10.3814L16.703 10.4995C16.5816 10.6208 16.5432 10.7961 16.6027 10.957C16.6623 11.118 16.8055 11.2261 16.9766 11.2393L18.6784 11.3701C18.8048 11.3797 18.9289 11.334 19.0186 11.2442C19.1083 11.1545 19.1542 11.0305 19.1445 10.904L19.0137 9.20219C19.0006 9.03112 18.8924 8.88786 18.7315 8.82833C18.5706 8.76878 18.3952 8.80722 18.2739 8.92852L17.9814 9.22096C17.3031 8.87403 16.5459 8.69141 15.7807 8.69141C14.7954 8.69141 13.8464 8.98664 13.0362 9.54522C12.2724 10.0719 11.6811 10.7968 11.3201 11.6453C9.44785 11.8372 7.98242 13.4235 7.98242 15.3456C7.98242 17.3967 9.65116 19.0655 11.7023 19.0655C13.7535 19.0655 15.4222 17.3967 15.4222 15.3456ZM11.7023 18.6085C9.90311 18.6085 8.43935 17.1448 8.43935 15.3456C8.43935 13.5464 9.90311 12.0827 11.7023 12.0827C13.5015 12.0827 14.9653 13.5464 14.9653 15.3456C14.9653 17.1448 13.5015 18.6085 11.7023 18.6085Z" fill="white"/>
<path d="M19.8591 12.6934C18.3967 12.6934 17.2069 13.8831 17.2069 15.3454C17.2069 16.8078 18.3967 17.9975 19.8591 17.9975C21.3214 17.9975 22.5111 16.8078 22.5111 15.3454C22.5111 13.8831 21.3214 12.6934 19.8591 12.6934ZM19.8591 17.5406C18.6486 17.5406 17.6639 16.5558 17.6639 15.3454C17.6639 14.135 18.6486 13.1503 19.8591 13.1503C21.0695 13.1503 22.0542 14.135 22.0542 15.3454C22.0542 16.5558 21.0695 17.5406 19.8591 17.5406Z" fill="white"/>
<path d="M23.5789 15.3453C23.5789 13.2942 21.9102 11.6255 19.8591 11.6255C17.8079 11.6255 16.1392 13.2942 16.1392 15.3453C16.1392 16.967 17.1824 18.3494 18.6329 18.8573C18.033 19.8619 16.9611 20.4764 15.7807 20.4764C15.4235 20.4764 15.075 20.4204 14.7405 20.3094L14.8584 20.1915C14.9797 20.0702 15.0181 19.8949 14.9586 19.7339C14.8991 19.573 14.7558 19.4649 14.5847 19.4517L12.883 19.3209C12.7562 19.3112 12.6324 19.3571 12.5427 19.4468C12.453 19.5365 12.4071 19.6605 12.4169 19.787L12.5476 21.4888C12.5608 21.6599 12.6689 21.8031 12.8299 21.8627C12.9908 21.9222 13.1662 21.8838 13.2875 21.7625L13.5802 21.4697C14.259 21.8169 15.016 21.9996 15.7807 21.9996C16.9433 21.9996 18.0684 21.58 18.9486 20.818C19.044 20.7355 19.0545 20.5912 18.9719 20.4958C18.8892 20.4003 18.745 20.39 18.6496 20.4725C17.8524 21.1626 16.8335 21.5426 15.7807 21.5426C15.0358 21.5426 14.2989 21.3512 13.6497 20.9889C13.5606 20.9392 13.4491 20.9547 13.3769 21.0269L12.9994 21.4043L12.8745 19.7786L14.5002 19.9035L14.1702 20.2335C14.1171 20.2866 14.0935 20.3625 14.1071 20.4364C14.1207 20.5103 14.1697 20.5727 14.2382 20.6035C14.7259 20.8224 15.2449 20.9334 15.7807 20.9334C16.4932 20.9334 17.1877 20.7333 17.7892 20.3546C18.3311 20.0134 18.7769 19.5417 19.0867 18.9844C19.296 19.0287 19.5117 19.0554 19.7323 19.0629C19.6104 19.3141 19.4645 19.5538 19.2964 19.7783C19.2208 19.8793 19.2413 20.0225 19.3423 20.0981C19.3834 20.1289 19.4315 20.1437 19.4791 20.1437C19.5486 20.1437 19.6173 20.1121 19.6622 20.0522C19.8954 19.7407 20.0896 19.4023 20.2414 19.0457C22.1136 18.8536 23.5789 17.2674 23.5789 15.3453ZM19.8591 18.6083C18.0599 18.6083 16.5961 17.1445 16.5961 15.3453C16.5961 13.5462 18.0599 12.0824 19.8591 12.0824C21.6582 12.0824 23.122 13.5461 23.122 15.3453C23.122 17.1445 21.6582 18.6083 19.8591 18.6083Z" fill="white"/>
<path d="M13.3123 14.9462C13.2672 14.8073 13.1494 14.7081 13.005 14.6871L12.3365 14.5899L12.0376 13.9843C11.973 13.8533 11.8421 13.772 11.6961 13.772C11.5501 13.772 11.4193 13.8533 11.3546 13.9842L11.0557 14.5899L10.3873 14.6871C10.2428 14.708 10.125 14.8073 10.0799 14.9462C10.0348 15.0851 10.0717 15.2347 10.1763 15.3366L10.66 15.808L10.5458 16.4738C10.5211 16.6177 10.5791 16.7604 10.6972 16.8462C10.764 16.8947 10.8421 16.9193 10.9207 16.9193C10.9812 16.9193 11.042 16.9047 11.0982 16.8752L11.6961 16.5609L12.294 16.8752C12.4232 16.9431 12.5769 16.932 12.695 16.8462C12.8131 16.7604 12.8712 16.6177 12.8465 16.4738L12.7323 15.808L13.216 15.3366C13.3205 15.2346 13.3575 15.0851 13.3123 14.9462ZM12.3847 15.5088C12.2949 15.5962 12.254 15.7222 12.2752 15.8458L12.3701 16.3989L11.8733 16.1377C11.7624 16.0794 11.6299 16.0794 11.519 16.1377L11.0222 16.3989L11.1171 15.8458C11.1383 15.7223 11.0974 15.5963 11.0076 15.5088L10.6057 15.117L11.161 15.0363C11.2851 15.0183 11.3922 14.9405 11.4478 14.828L11.6961 14.3248L11.9445 14.828C12 14.9405 12.1072 15.0184 12.2312 15.0364L12.7866 15.117L12.3847 15.5088Z" fill="white"/>
<path d="M20.1664 15.1175C19.9579 15.0437 19.7273 14.9547 19.5979 14.8532C19.5567 14.8209 19.5389 14.7473 19.5534 14.6699C19.5684 14.5905 19.6217 14.4945 19.7265 14.4629C19.9786 14.3869 20.1687 14.5492 20.1801 14.5592C20.2726 14.6437 20.4159 14.6381 20.5014 14.5461C20.5874 14.4538 20.5821 14.3092 20.4898 14.2233C20.4798 14.2139 20.3215 14.07 20.0734 14.0107V13.9091C20.0734 13.7829 19.9711 13.6807 19.8449 13.6807C19.7187 13.6807 19.6164 13.7829 19.6164 13.9091V14.0194C19.6092 14.0214 19.602 14.0232 19.5947 14.0254C19.3431 14.1012 19.1552 14.3157 19.1044 14.5853C19.0577 14.8334 19.1387 15.0738 19.3159 15.2127C19.4621 15.3274 19.6644 15.4246 20.0141 15.5483C20.2484 15.6311 20.2433 15.8208 20.2303 15.8985C20.2038 16.0558 20.0715 16.2259 19.8434 16.2274C19.6204 16.2292 19.5508 16.2178 19.3793 16.1057C19.2737 16.0366 19.1322 16.0662 19.0631 16.1718C18.994 16.2774 19.0236 16.419 19.1292 16.4881C19.314 16.6089 19.4501 16.6577 19.6164 16.6754V16.7824C19.6164 16.9086 19.7187 17.0108 19.8449 17.0108C19.9711 17.0108 20.0734 16.9086 20.0734 16.7824V16.6531C20.4139 16.5588 20.6321 16.2646 20.6809 15.9742C20.7449 15.5932 20.5382 15.2489 20.1664 15.1175Z" fill="white"/>
<path d="M11.7023 12.6934C10.4479 12.6934 9.3552 13.584 9.1041 14.8112C9.07879 14.9348 9.1585 15.0555 9.28212 15.0808C9.40564 15.106 9.52645 15.0264 9.55174 14.9028C9.75955 13.8873 10.664 13.1503 11.7023 13.1503C12.9128 13.1503 13.8975 14.135 13.8975 15.3454C13.8975 16.5558 12.9128 17.5406 11.7023 17.5406C10.6682 17.5406 9.76448 16.8071 9.5535 15.7966C9.52773 15.6731 9.40677 15.5941 9.28315 15.6197C9.15963 15.6455 9.0804 15.7665 9.1062 15.89C9.36117 17.1112 10.453 17.9975 11.7023 17.9975C13.1647 17.9975 14.3544 16.8078 14.3544 15.3454C14.3544 13.8831 13.1647 12.6934 11.7023 12.6934Z" fill="white"/>
</svg>
