<svg width="31" height="31" viewBox="0 0 31 31" fill="none" xmlns="http://www.w3.org/2000/svg">
<circle cx="15.5" cy="15.5" r="15" fill="#0092D8" stroke="#0092D8"/>
<path d="M22.1265 21.1801L21.5434 20.8468C21.739 20.7895 21.922 20.7229 22.0907 20.6474C22.2765 20.5642 22.3955 20.3821 22.3939 20.1835C22.383 18.7591 22.2164 17.6946 21.8848 16.9292C21.4456 15.9154 20.7081 15.4014 19.6929 15.4014C18.6776 15.4014 17.9401 15.9154 17.5008 16.9292C17.3707 17.2296 17.2661 17.5764 17.1862 17.9726L15.5986 16.8812V14.8238H18.062C18.5022 14.8238 18.8604 14.4656 18.8604 14.0253V13.5031C18.8604 13.0595 18.5813 12.6568 18.1659 12.501L16.8733 12.0163C16.7891 11.9847 16.7257 11.9155 16.6993 11.8322L16.8281 11.7356C17.0779 11.5483 17.2331 11.2621 17.2538 10.9506L17.4234 8.40646C17.4481 8.03723 17.3172 7.6705 17.0644 7.40031C16.8116 7.13009 16.4544 6.9751 16.0843 6.9751H14.6032C14.2332 6.9751 13.876 7.13009 13.6232 7.40028C13.3704 7.6705 13.2395 8.03726 13.2641 8.40643L13.4338 10.9506C13.4545 11.2621 13.6097 11.5483 13.8595 11.7356L13.9883 11.8322C13.962 11.9155 13.8985 11.9847 13.8143 12.0162L12.5217 12.501C12.1063 12.6568 11.8272 13.0595 11.8272 13.5031V14.0253C11.8272 14.4656 12.1854 14.8238 12.6256 14.8238H15.089V16.8812L13.2592 18.1392L13.3462 16.8327C13.3709 16.4635 13.24 16.0968 12.9872 15.8266C12.7344 15.5564 12.3772 15.4014 12.0071 15.4014H10.526C10.156 15.4014 9.79879 15.5564 9.54602 15.8266C9.29322 16.0968 9.16236 16.4636 9.18696 16.8327L9.35657 19.3769C9.37733 19.6884 9.53255 19.9746 9.7823 20.1619L9.91113 20.2585C9.88481 20.3418 9.82136 20.411 9.73713 20.4425L8.44448 20.9273C8.02909 21.0831 7.75 21.4858 7.75 21.9294V22.4516C7.75 22.8919 8.10818 23.2501 8.54846 23.2501H13.9847C14.425 23.2501 14.7832 22.8919 14.7832 22.4516V21.9294C14.7832 21.4858 14.5041 21.0831 14.0887 20.9273L12.796 20.4426C12.7118 20.411 12.6484 20.3418 12.622 20.2585L12.7509 20.1619C13.0007 19.9746 13.1558 19.6884 13.1766 19.3769L13.2159 18.7874L15.3438 17.3245L17.0946 18.5282C17.0305 19.0156 16.9965 19.5657 16.9917 20.1836C16.9901 20.3822 17.1092 20.5643 17.2949 20.6474C17.4636 20.723 17.6466 20.7896 17.8423 20.8469L17.2592 21.1802C16.9265 21.3702 16.7199 21.7263 16.7199 22.1094V22.4516C16.7199 22.8919 17.0781 23.2501 17.5183 23.2501H21.8674C22.3076 23.2501 22.6658 22.8919 22.6658 22.4516V22.1094C22.6658 21.7262 22.4591 21.3701 22.1265 21.1801ZM12.9836 21.0571L13.9097 21.4045C14.1273 21.4861 14.2735 21.697 14.2735 21.9294V22.4515C14.2735 22.6108 14.144 22.7404 13.9847 22.7404H8.54842C8.38917 22.7404 8.25961 22.6108 8.25961 22.4515V21.9294C8.25961 21.697 8.4058 21.4861 8.62338 21.4045L9.54958 21.0572C9.85299 21.7246 10.5235 22.1628 11.2666 22.1628C12.0095 22.1627 12.6802 21.7246 12.9836 21.0571ZM10.0243 20.8694C10.1513 20.7982 10.2552 20.6939 10.3266 20.5702L10.3526 20.5896C10.5366 20.7276 10.7647 20.8036 10.9947 20.8036H11.5384C11.7684 20.8036 11.9965 20.7276 12.1805 20.5896L12.2064 20.5702C12.2779 20.6939 12.3818 20.7982 12.5088 20.8694C12.2826 21.3434 11.8002 21.6531 11.2665 21.6531C10.7329 21.6531 10.2505 21.3434 10.0243 20.8694ZM12.6681 19.3429C12.6572 19.5061 12.5759 19.656 12.4451 19.7541L11.8748 20.1819C11.7784 20.2542 11.6589 20.294 11.5384 20.294H10.9948C10.8743 20.294 10.7548 20.2542 10.6584 20.1819L10.0881 19.7541C9.95722 19.656 9.87594 19.5061 9.86507 19.3429L9.78052 18.0744C10.2348 18.0339 11.7835 17.8683 12.796 17.424L12.6681 19.3429ZM12.8377 16.7988L12.8352 16.8364C11.969 17.3297 10.2328 17.5204 9.74654 17.5654L9.69542 16.7988C9.67994 16.5665 9.759 16.3448 9.91809 16.1747C10.0772 16.0047 10.2931 15.911 10.526 15.911H12.0071C12.2399 15.911 12.4558 16.0047 12.615 16.1747C12.7741 16.3448 12.8532 16.5665 12.8377 16.7988ZM13.7727 8.37258C13.7572 8.14022 13.8362 7.91857 13.9954 7.74851C14.1545 7.57845 14.3704 7.48477 14.6033 7.48477H16.0843C16.3172 7.48477 16.5331 7.57845 16.6922 7.74851C16.8514 7.9186 16.9304 8.14022 16.915 8.37258L16.9125 8.41015C16.0463 8.90345 14.3101 9.0942 13.8238 9.13918L13.7727 8.37258ZM13.9423 10.9166L13.8577 9.64819C14.312 9.60766 15.8608 9.44208 16.8732 8.99779L16.8062 10.0032C16.8062 10.0033 16.8062 10.0034 16.8062 10.0034C16.7781 10.4246 16.3977 10.7805 15.9756 10.7805H15.3438C15.203 10.7805 15.0889 10.8946 15.0889 11.0353C15.0889 11.1761 15.203 11.2902 15.3438 11.2902H15.9756C16.2456 11.2902 16.5015 11.2044 16.7162 11.0591C16.6803 11.1652 16.6138 11.2593 16.5223 11.3279L15.9519 11.7557C15.8556 11.828 15.7361 11.8678 15.6156 11.8678H15.072C14.9515 11.8678 14.832 11.8279 14.7356 11.7557L14.1653 11.3279C14.0344 11.2297 13.9532 11.0799 13.9423 10.9166ZM16.5127 12.3961L15.3438 13.1754L14.1748 12.3961C14.2687 12.329 14.3468 12.2428 14.4039 12.1439L14.4298 12.1634C14.6138 12.3014 14.8419 12.3774 15.072 12.3774H15.6156C15.8456 12.3774 16.0737 12.3014 16.2577 12.1634L16.2836 12.1439C16.3408 12.2428 16.4189 12.329 16.5127 12.3961ZM12.6257 14.3141C12.4664 14.3141 12.3368 14.1845 12.3368 14.0253V13.5031C12.3368 13.2708 12.483 13.0598 12.7006 12.9782L13.6149 12.6354L15.2024 13.6937C15.2453 13.7223 15.2945 13.7365 15.3438 13.7365C15.3931 13.7365 15.4423 13.7223 15.4852 13.6937L17.0727 12.6354L17.987 12.9782C18.2046 13.0598 18.3508 13.2708 18.3508 13.5031V14.0253C18.3508 14.1845 18.2212 14.3141 18.062 14.3141H12.6257ZM17.5033 20.1822C17.5025 20.1819 17.5019 20.1816 17.5013 20.1813C17.5122 18.8297 17.665 17.8322 17.9684 17.1318C18.3244 16.3103 18.8884 15.911 19.6928 15.911C20.4972 15.911 21.0613 16.3104 21.4171 17.1318C21.7206 17.8322 21.8734 18.8298 21.8842 20.1813C21.8837 20.1816 21.8831 20.1819 21.8823 20.1823C21.6041 20.3069 21.2648 20.4077 20.897 20.4765C20.8143 20.4237 20.7631 20.3321 20.7631 20.2334C20.7631 20.2237 20.7624 20.2143 20.7614 20.2049L20.7871 20.1895C21.1076 19.9972 21.3067 19.6455 21.3067 19.2717V17.8307C21.3067 17.7631 21.2798 17.6984 21.232 17.6505L20.6884 17.1069C20.5889 17.0074 20.4275 17.0074 20.3281 17.1069C20.1484 17.2866 19.7432 17.4296 19.1871 17.5097C18.7341 17.5749 18.3376 17.5759 18.3337 17.5759C18.193 17.5759 18.0789 17.69 18.0789 17.8307V19.2717C18.0789 19.6455 18.278 19.9972 18.5985 20.1895L18.6242 20.2049C18.6232 20.2143 18.6226 20.2238 18.6226 20.2334C18.6226 20.3321 18.5713 20.4237 18.4886 20.4765C18.1209 20.4077 17.7815 20.3069 17.5033 20.1822ZM19.0911 20.485L19.282 20.5996C19.4087 20.6756 19.5508 20.7136 19.6929 20.7136C19.8349 20.7136 19.977 20.6756 20.1037 20.5996L20.2946 20.485C20.3559 20.6689 20.483 20.8279 20.6558 20.9266L20.7988 21.0084C20.6716 21.179 20.2576 21.6875 19.6929 21.9088C19.1313 21.6884 18.715 21.1789 18.5871 21.0083L18.7299 20.9266C18.9028 20.8279 19.0298 20.6689 19.0911 20.485ZM18.5886 19.2717V18.0779C18.7576 18.0695 18.995 18.0519 19.2532 18.015C19.7928 17.9379 20.2065 17.8077 20.4877 17.6269L20.7971 17.9362V19.2717C20.7971 19.4675 20.6928 19.6517 20.5249 19.7524L19.8414 20.1625C19.7498 20.2175 19.6359 20.2175 19.5442 20.1625L18.8607 19.7524C18.6929 19.6517 18.5886 19.4675 18.5886 19.2717ZM22.1562 22.4515H22.1562C22.1562 22.6108 22.0266 22.7404 21.8673 22.7404H17.5183C17.3591 22.7404 17.2295 22.6108 17.2295 22.4515V22.1093C17.2295 21.9087 17.3378 21.7221 17.512 21.6226L18.1417 21.2627C18.2527 21.4197 18.804 22.1521 19.6123 22.4215C19.6384 22.4302 19.6656 22.4346 19.6929 22.4346C19.7201 22.4346 19.7473 22.4302 19.7734 22.4215C20.5817 22.1521 21.133 21.4197 21.244 21.2627L21.8737 21.6225C22.0479 21.7221 22.1562 21.9086 22.1562 22.1093V22.4515Z" fill="white"/>
</svg>
