<svg width="31" height="31" viewBox="0 0 31 31" fill="none" xmlns="http://www.w3.org/2000/svg">
<circle cx="15.5" cy="15.5" r="15" fill="#9C7777" stroke="#9C7777"/>
<path d="M22 8H9C8.44772 8 8 8.44772 8 9V22C8 22.5523 8.44772 23 9 23H22C22.5523 23 23 22.5523 23 22V9C23 8.44772 22.5523 8 22 8ZM8.5 9C8.5 8.72386 8.72386 8.5 9 8.5H22C22.2761 8.5 22.5 8.72386 22.5 9V10.5H8.5V9ZM22.5 22C22.5 22.2761 22.2761 22.5 22 22.5H9C8.72386 22.5 8.5 22.2761 8.5 22V11H22.5V22Z" fill="white"/>
<path d="M9.5 9.75C9.63807 9.75 9.75 9.63807 9.75 9.5C9.75 9.36193 9.63807 9.25 9.5 9.25C9.36193 9.25 9.25 9.36193 9.25 9.5C9.25 9.63807 9.36193 9.75 9.5 9.75Z" fill="white"/>
<path d="M10.5 9.75C10.6381 9.75 10.75 9.63807 10.75 9.5C10.75 9.36193 10.6381 9.25 10.5 9.25C10.3619 9.25 10.25 9.36193 10.25 9.5C10.25 9.63807 10.3619 9.75 10.5 9.75Z" fill="white"/>
<path d="M11.5 9.75C11.6381 9.75 11.75 9.63807 11.75 9.5C11.75 9.36193 11.6381 9.25 11.5 9.25C11.3619 9.25 11.25 9.36193 11.25 9.5C11.25 9.63807 11.3619 9.75 11.5 9.75Z" fill="white"/>
<path d="M21.5 9.25H20.5C20.3619 9.25 20.25 9.36193 20.25 9.5C20.25 9.63807 20.3619 9.75 20.5 9.75H21.5C21.6381 9.75 21.75 9.63807 21.75 9.5C21.75 9.36193 21.6381 9.25 21.5 9.25Z" fill="white"/>
<path d="M18 16H20C20.4142 16 20.75 15.6642 20.75 15.25V14.915C20.75 14.7769 20.6381 14.665 20.5 14.665C20.3619 14.665 20.25 14.7769 20.25 14.915V15.25C20.25 15.3881 20.1381 15.5 20 15.5H18C17.8619 15.5 17.75 15.3881 17.75 15.25V13.25C17.75 13.1119 17.8619 13 18 13H19.835C19.9731 13 20.085 12.8881 20.085 12.75C20.085 12.6119 19.9731 12.5 19.835 12.5H18C17.5858 12.5 17.25 12.8358 17.25 13.25V15.25C17.25 15.6642 17.5858 16 18 16Z" fill="white"/>
<path d="M18.4267 14.0732C18.3287 13.9785 18.1727 13.9798 18.0763 14.0762C17.9799 14.1727 17.9785 14.3286 18.0732 14.4267L18.8232 15.1767C18.9168 15.2703 19.067 15.2748 19.166 15.187L21.416 13.187C21.5195 13.0953 21.5292 12.937 21.4375 12.8335C21.3458 12.7299 21.1875 12.7203 21.084 12.812L19.009 14.6555L18.4267 14.0732Z" fill="white"/>
<path d="M18 21.25H20C20.4142 21.25 20.75 20.9142 20.75 20.5V20.165C20.75 20.0269 20.6381 19.915 20.5 19.915C20.3619 19.915 20.25 20.0269 20.25 20.165V20.5C20.25 20.6381 20.1381 20.75 20 20.75H18C17.8619 20.75 17.75 20.6381 17.75 20.5V18.5C17.75 18.3619 17.8619 18.25 18 18.25H19.835C19.9731 18.25 20.085 18.1381 20.085 18C20.085 17.8619 19.9731 17.75 19.835 17.75H18C17.5858 17.75 17.25 18.0858 17.25 18.5V20.5C17.25 20.9142 17.5858 21.25 18 21.25Z" fill="white"/>
<path d="M21.084 18.063L19.009 19.9065L18.4257 19.3232C18.3276 19.2285 18.1717 19.2298 18.0753 19.3262C17.9788 19.4227 17.9775 19.5786 18.0722 19.6767L18.8222 20.4267C18.9158 20.5203 19.066 20.5248 19.165 20.437L21.415 18.437C21.5185 18.3453 21.5282 18.187 21.4365 18.0835C21.3448 17.9799 21.1865 17.9703 21.083 18.062L21.084 18.063Z" fill="white"/>
<path d="M9.75 14.5H16C16.1381 14.5 16.25 14.3881 16.25 14.25C16.25 14.1119 16.1381 14 16 14H9.75C9.61193 14 9.5 14.1119 9.5 14.25C9.5 14.3881 9.61193 14.5 9.75 14.5Z" fill="white"/>
<path d="M9.75 13.25H16C16.1381 13.25 16.25 13.1381 16.25 13C16.25 12.8619 16.1381 12.75 16 12.75H9.75C9.61193 12.75 9.5 12.8619 9.5 13C9.5 13.1381 9.61193 13.25 9.75 13.25Z" fill="white"/>
<path d="M9.75 15.75H13.25C13.3881 15.75 13.5 15.6381 13.5 15.5C13.5 15.3619 13.3881 15.25 13.25 15.25H9.75C9.61193 15.25 9.5 15.3619 9.5 15.5C9.5 15.6381 9.61193 15.75 9.75 15.75Z" fill="white"/>
<path d="M9.75 19.75H16C16.1381 19.75 16.25 19.6381 16.25 19.5C16.25 19.3619 16.1381 19.25 16 19.25H9.75C9.61193 19.25 9.5 19.3619 9.5 19.5C9.5 19.6381 9.61193 19.75 9.75 19.75Z" fill="white"/>
<path d="M9.75 18.5H16C16.1381 18.5 16.25 18.3881 16.25 18.25C16.25 18.1119 16.1381 18 16 18H9.75C9.61193 18 9.5 18.1119 9.5 18.25C9.5 18.3881 9.61193 18.5 9.75 18.5Z" fill="white"/>
<path d="M9.75 21H13.25C13.3881 21 13.5 20.8881 13.5 20.75C13.5 20.6119 13.3881 20.5 13.25 20.5H9.75C9.61193 20.5 9.5 20.6119 9.5 20.75C9.5 20.8881 9.61193 21 9.75 21Z" fill="white"/>
</svg>
