<svg width="29" height="29" viewBox="0 0 29 29" fill="none" xmlns="http://www.w3.org/2000/svg">
<path d="M27.4737 25.9474H3.05263V1.52632C3.05263 1.12151 2.89182 0.733287 2.60558 0.447047C2.31934 0.160808 1.93112 0 1.52632 0C1.12151 0 0.733287 0.160808 0.447047 0.447047C0.160808 0.733287 0 1.12151 0 1.52632V27.4737C0 27.8785 0.160808 28.2667 0.447047 28.553C0.733287 28.8392 1.12151 29 1.52632 29H27.4737C27.8785 29 28.2667 28.8392 28.553 28.553C28.8392 28.2667 29 27.8785 29 27.4737C29 27.0689 28.8392 26.6807 28.553 26.3944C28.2667 26.1082 27.8785 25.9474 27.4737 25.9474Z" fill="#008242"/>
<path d="M6.10527 13.7368V21.3683C6.10527 21.7731 6.26608 22.1614 6.55232 22.4476C6.83856 22.7339 7.22678 22.8947 7.63159 22.8947C8.03639 22.8947 8.42461 22.7339 8.71085 22.4476C8.99709 22.1614 9.1579 21.7731 9.1579 21.3683V13.7368C9.1579 13.332 8.99709 12.9437 8.71085 12.6575C8.42461 12.3713 8.03639 12.2104 7.63159 12.2104C7.22678 12.2104 6.83856 12.3713 6.55232 12.6575C6.26608 12.9437 6.10527 13.332 6.10527 13.7368Z" fill="#008242"/>
<path d="M12.2105 6.10542V21.3686C12.2105 21.7734 12.3713 22.1616 12.6576 22.4478C12.9438 22.7341 13.332 22.8949 13.7368 22.8949C14.1416 22.8949 14.5299 22.7341 14.8161 22.4478C15.1023 22.1616 15.2632 21.7734 15.2632 21.3686V6.10542C15.2632 5.70061 15.1023 5.31239 14.8161 5.02615C14.5299 4.73991 14.1416 4.5791 13.7368 4.5791C13.332 4.5791 12.9438 4.73991 12.6576 5.02615C12.3713 5.31239 12.2105 5.70061 12.2105 6.10542Z" fill="#008242"/>
<path d="M18.3158 9.15766V21.3682C18.3158 21.773 18.4766 22.1612 18.7628 22.4475C19.0491 22.7337 19.4373 22.8945 19.8421 22.8945C20.2469 22.8945 20.6351 22.7337 20.9214 22.4475C21.2076 22.1612 21.3684 21.773 21.3684 21.3682V9.15766C21.3684 8.75286 21.2076 8.36464 20.9214 8.0784C20.6351 7.79216 20.2469 7.63135 19.8421 7.63135C19.4373 7.63135 19.0491 7.79216 18.7628 8.0784C18.4766 8.36464 18.3158 8.75286 18.3158 9.15766Z" fill="#008242"/>
<path d="M24.4211 1.52632V21.3684C24.4211 21.7732 24.5819 22.1615 24.8681 22.4477C25.1543 22.7339 25.5426 22.8947 25.9474 22.8947C26.3522 22.8947 26.7404 22.7339 27.0266 22.4477C27.3129 22.1615 27.4737 21.7732 27.4737 21.3684V1.52632C27.4737 1.12151 27.3129 0.733287 27.0266 0.447047C26.7404 0.160808 26.3522 0 25.9474 0C25.5426 0 25.1543 0.160808 24.8681 0.447047C24.5819 0.733287 24.4211 1.12151 24.4211 1.52632Z" fill="#008242"/>
</svg>
