<svg width="26" height="27" fill="none" xmlns="http://www.w3.org/2000/svg"><path d="M24.8 8.44c.66 0 1.2-.54 1.2-1.2V3.85c0-.66-.54-1.2-1.2-1.2h-.63c-.5 0-.5.76 0 .76h.63c.24 0 .44.2.44.44v3.39c-.02.58-.85.58-.87 0V5.86c0-.33-.42-.5-.65-.27l-4 4c-.2.17-.41.17-.62 0l-6.29-6.5c-.18-.15-.36-.15-.54 0L1.51 13.89c-.21.16-.42.16-.62 0a.44.44 0 0 1 0-.63L12.24 1.88c.21-.17.42-.17.62 0l6.29 6.5c.18.16.36.16.54 0l3.44-3.44c.24-.24.06-.65-.27-.65h-1.43a.44.44 0 0 1 0-.88h.71c.5 0 .5-.76 0-.76h-.71c-1.6.07-1.6 2.34 0 2.4h.51l-2.51 2.52-6.02-6.22a1.22 1.22 0 0 0-1.7 0L.34 12.71a1.2 1.2 0 0 0 0 1.7c.46.46 1.24.46 1.7 0L12.53 3.9l6.01 6.22c.46.47 1.25.48 1.71.01l3.34-3.35v.46c0 .66.54 1.2 1.2 1.2Z" fill="#838384"/><path d="M23.2 15.56c-.13-1.86-5.37-1.89-6.85-.97v-2.97c0-1.3-2.88-1.6-3.8-1.6-.94 0-3.82.33-3.82 1.6v6.89c-1.5-.93-6.65-.89-6.85.96v5.91c0 1.06 1.91 1.61 3.8 1.61 1.39 0 2.78-.3 3.43-.86 1.31 1.15 5.55 1.15 6.86 0 1.25 1.24 7.1 1.25 7.24-.75v-9.82Zm-7.61-1.98s-.2.31-.75.5c-1.39.5-3.21.5-4.6 0-.54-.19-.75-.5-.75-.5v-.96c1.65.9 4.45.9 6.1 0v.96Zm-5.07 3.37c.47.11.66-.62.18-.74-.9-.22-1.2-.53-1.2-.64v-.99c1.64.9 4.44.9 6.09 0v.99c0 .09-.2.3-.75.5-.61.22-1.43.34-2.3.34-.5 0-.5.76 0 .76 1.16 0 2.32-.2 3.05-.6v.98c0 .1-.2.32-.75.51-1.39.5-3.21.5-4.6 0-.54-.2-.75-.41-.75-.5v-.99c.28.15.62.28 1.03.38Zm11.93 4.52c0 .1-.2.31-.76.5-1.38.5-3.2.5-4.59 0-.55-.19-.75-.4-.75-.5v-.96c1.65.9 4.45.9 6.1 0v.96ZM9.49 20.5c1.65.9 4.45.9 6.1 0v.96c0 .1-.2.31-.75.5-1.39.5-3.21.5-4.6 0-.54-.19-.75-.4-.75-.5v-.96Zm12.96-1c0 .1-.2.31-.76.51-1.38.5-3.2.5-4.59 0-.55-.2-.75-.42-.75-.5v-.96c1.65.9 4.45.9 6.1 0v.95Zm0-1.96c0 .1-.2.32-.76.51-1.38.5-3.2.5-4.59 0-.55-.2-.75-.41-.75-.5v-.96c1.65.9 4.45.9 6.1 0v.95Zm-12.96 1c1.65.9 4.45.9 6.1 0v.96c0 .1-.2.31-.75.51-1.39.5-3.21.5-4.6 0-.54-.2-.75-.42-.75-.5v-.96Zm-.76 2.92c0 .1-.2.31-.75.5-1.39.5-3.2.5-4.6 0-.54-.19-.74-.4-.74-.5v-.96c1.64.9 4.44.9 6.1 0v.96Zm-6.1 1c1.65.9 4.45.9 6.1 0v.96c0 .09-.2.3-.75.5-1.39.5-3.2.5-4.6 0-.54-.2-.74-.41-.74-.5v-.96Zm6.86 0c1.65.9 4.45.9 6.1 0v.96c0 .09-.2.3-.75.5-1.39.5-3.21.5-4.6 0-.54-.2-.75-.41-.75-.5v-.96Zm6.86 0c1.65.9 4.45.9 6.1 0v.96c0 .09-.2.3-.76.5-1.38.5-3.2.5-4.59 0-.55-.2-.75-.41-.75-.5v-.96Zm.75-7.38a8.04 8.04 0 0 1 4.6 0c.54.2.75.41.75.5 0 .1-.2.32-.76.52-.6.21-1.42.33-2.3.33-.86 0-1.68-.12-2.29-.33-.55-.2-.75-.42-.75-.51 0-.1.2-.32.75-.51Zm-6.85-3.98a8.05 8.05 0 0 1 4.59 0c.54.2.75.42.75.51 0 .1-.2.31-.75.51-1.39.5-3.21.5-4.6 0-.54-.2-.75-.42-.75-.5 0-.1.2-.32.76-.52Zm-6.86 7.9c1.38-.5 3.2-.5 4.59 0 .55.19.75.4.75.5 0 .1-.2.31-.75.51-1.39.5-3.2.5-4.6 0-.54-.2-.74-.42-.74-.5 0-.1.2-.32.75-.52Zm4.59 6.88c-1.39.5-3.2.5-4.6 0-.54-.2-.74-.41-.74-.5v-.96c1.64.9 4.44.9 6.1 0v.95c0 .1-.21.32-.76.51Zm6.86 0c-1.39.5-3.21.5-4.6 0-.54-.2-.75-.41-.75-.5v-.96c1.65.9 4.45.9 6.1 0v.95c0 .1-.2.32-.75.51Zm6.85 0c-1.38.5-3.2.5-4.59 0-.55-.2-.75-.41-.75-.5v-.96c1.65.9 4.45.9 6.1 0v.95c0 .1-.2.32-.76.51Z" fill="#838384"/></svg>