<svg width="18" height="23" fill="none" xmlns="http://www.w3.org/2000/svg"><path d="M1.13 20.25h1.12v1.12c0 .62.5 1.13 1.13 1.13h13.5c.62 0 1.12-.5 1.12-1.13v-18c0-.62-.5-1.12-1.12-1.12h-1.13V1.12c0-.62-.5-1.12-1.12-1.12H4.1L4 .02l-.03.02a.36.36 0 0 0-.1.07L.1 3.86a.38.38 0 0 0-.07.11l-.02.04a.36.36 0 0 0-.02.1v15.02a1.12 1.12 0 0 0 1.13 1.12ZM16.88 3c.2 0 .37.17.37.37v18c0 .21-.17.38-.37.38H3.38a.38.38 0 0 1-.38-.38v-1.12h11.63c.62 0 1.12-.5 1.12-1.13V3h1.13ZM15 1.12v18c0 .21-.17.38-.37.38H1.13a.37.37 0 0 1-.38-.38V4.5h2.63C4 4.5 4.5 4 4.5 3.37V.75h10.13c.2 0 .37.17.37.37Zm-11.25.16v2.1c0 .2-.17.37-.37.37h-2.1l2.47-2.47Z" fill="#838384"/><path fill-rule="evenodd" clip-rule="evenodd" d="M2.63 6.37a.37.37 0 0 0 0 .75h10.5a.37.37 0 1 0 0-.75H2.63ZM13.13 13.87H2.63a.37.37 0 0 0 0 .75h10.5a.38.38 0 0 0 0-.75ZM13.13 8.25h-1.88a.37.37 0 1 0 0 .75h1.88a.37.37 0 1 0 0-.75ZM9.75 8.62c0-.2-.17-.37-.37-.37H2.63a.37.37 0 0 0 0 .75h6.75c.2 0 .37-.17.37-.38ZM7.13 15.75h-.38a.37.37 0 0 0 0 .75h.38a.37.37 0 0 0 0-.75ZM4.88 15.75H2.63a.37.37 0 0 0 0 .75h2.25a.37.37 0 0 0 0-.75ZM2.63 10.87H4.5a.37.37 0 1 0 0-.75H2.63a.37.37 0 0 0 0 .75ZM13.13 10.12H6.38a.37.37 0 1 0 0 .75h6.75a.37.37 0 1 0 0-.75ZM2.63 12.75h1.12a.37.37 0 1 0 0-.75H2.63a.37.37 0 0 0 0 .75ZM5.63 12.75h4.5a.37.37 0 1 0 0-.75h-4.5a.38.38 0 1 0 0 .75ZM13.13 12H12a.38.38 0 0 0 0 .75h1.13a.38.38 0 1 0 0-.75Z" fill="#838384"/></svg>