<svg width="19" height="19" viewBox="0 0 19 19" fill="none" xmlns="http://www.w3.org/2000/svg">
<g clip-path="url(#clip0_10_203)">
<path d="M18.8302 8.95746C18.6835 8.7469 15.178 3.79993 9.5002 3.79993C3.82236 3.79993 0.316856 8.7469 0.170237 8.95746C-0.0565015 9.28362 -0.0565015 9.7162 0.170237 10.0424C0.316856 10.2529 3.82236 15.1999 9.5002 15.1999C15.178 15.1999 18.6835 10.253 18.8302 10.0424C19.0569 9.7162 19.0569 9.28365 18.8302 8.95746ZM9.5002 14.2499C4.25368 14.2499 0.950202 9.49993 0.950202 9.49993C0.950202 9.49993 4.25368 4.74993 9.5002 4.74993C14.7467 4.74993 18.0502 9.49993 18.0502 9.49993C18.0502 9.49993 14.7467 14.2499 9.5002 14.2499Z" fill="#C1C1C1"/>
<path d="M9.49977 5.70001C7.40123 5.70001 5.69977 7.40114 5.69977 9.50001C5.69977 11.5989 7.4009 13.3 9.49977 13.3C11.5986 13.3 13.2998 11.5989 13.2998 9.50001C13.2998 7.40114 11.5983 5.70001 9.49977 5.70001ZM9.49977 12.35C7.92815 12.35 6.64977 11.0716 6.64977 9.50001C6.64977 7.92839 7.92815 6.65001 9.49977 6.65001C11.0714 6.65001 12.3498 7.92839 12.3498 9.50001C12.3498 11.0716 11.0714 12.35 9.49977 12.35Z" fill="#C1C1C1"/>
</g>
<defs>
<clipPath id="clip0_10_203">
<rect width="19" height="19" fill="white"/>
</clipPath>
</defs>
</svg>
