<svg width="19" height="18" viewBox="0 0 19 18" fill="none" xmlns="http://www.w3.org/2000/svg">
<g clip-path="url(#clip0_10_358)">
<path d="M18.8301 8.48606C18.6835 8.28658 15.178 3.59998 9.50014 3.59998C3.82229 3.59998 0.316795 8.28658 0.170176 8.48606C-0.0565625 8.79505 -0.0565625 9.20487 0.170176 9.51385C0.316795 9.71337 3.82229 14.4 9.50014 14.4C15.178 14.4 18.6835 9.71337 18.8301 9.51389C19.0568 9.20487 19.0568 8.79508 18.8301 8.48606ZM9.50014 13.5C4.25362 13.5 0.950141 8.99998 0.950141 8.99998C0.950141 8.99998 4.25362 4.49998 9.50014 4.49998C14.7467 4.49998 18.0501 8.99998 18.0501 8.99998C18.0501 8.99998 14.7467 13.5 9.50014 13.5Z" fill="#C1C1C1"/>
<path d="M9.49983 5.40002C7.40129 5.40002 5.69983 7.01162 5.69983 9.00002C5.69983 10.9884 7.40096 12.6 9.49983 12.6C11.5987 12.6 13.2998 10.9884 13.2998 9.00002C13.2998 7.01162 11.5984 5.40002 9.49983 5.40002ZM9.49983 11.7C7.92821 11.7 6.64983 10.4889 6.64983 9.00002C6.64983 7.51112 7.92821 6.30002 9.49983 6.30002C11.0714 6.30002 12.3498 7.51112 12.3498 9.00002C12.3498 10.4889 11.0714 11.7 9.49983 11.7Z" fill="#C1C1C1"/>
<line y1="-0.75" x2="17.6712" y2="-0.75" transform="matrix(0.734071 -0.679073 0.734071 0.679073 3.19531 15.75)" stroke="#C1C1C1" stroke-width="1.5"/>
</g>
<defs>
<clipPath id="clip0_10_358">
<rect width="19" height="18" fill="white"/>
</clipPath>
</defs>
</svg>
