<svg width="21" height="15" viewBox="0 0 21 15" fill="none" xmlns="http://www.w3.org/2000/svg">
<path d="M13.4487 8.1582L11.7103 9.9024C11.0054 10.6098 9.7651 10.625 9.04494 9.9024L7.30654 8.1582L1.06299 14.422C1.29539 14.5295 1.55164 14.5936 1.82405 14.5936H18.9312C19.2036 14.5936 19.4598 14.5296 19.6921 14.4221L13.4487 8.1582Z" fill="#D6E5DE"/>
<path d="M18.9314 0H1.82422C1.5518 0 1.29556 0.0641317 1.06323 0.171599L7.7349 6.86541C7.73535 6.86585 7.73588 6.86593 7.73632 6.86638C7.73677 6.86683 7.73685 6.86743 7.73685 6.86743L9.90618 9.04394C10.1366 9.27435 10.6191 9.27435 10.8495 9.04394L13.0184 6.8678C13.0184 6.8678 13.0189 6.86683 13.0194 6.86638C13.0194 6.86638 13.0203 6.86585 13.0208 6.86541L19.6923 0.171558C19.46 0.0640506 19.2038 0 18.9314 0Z" fill="#D6E5DE"/>
<path d="M0.194016 1.02197C0.0737797 1.26512 0 1.53503 0 1.82414V12.7695C0 13.0586 0.0736986 13.3285 0.193976 13.5717L6.44835 7.29702L0.194016 1.02197Z" fill="#D6E5DE"/>
<path d="M20.5617 1.02197L14.3074 7.2971L20.5617 13.5718C20.6819 13.3287 20.7557 13.0588 20.7557 12.7696V1.82423C20.7557 1.53503 20.6819 1.26512 20.5617 1.02197Z" fill="#D6E5DE"/>
</svg>
