<svg width="28" height="25" viewBox="0 0 28 25" fill="none" xmlns="http://www.w3.org/2000/svg">
<path d="M27.3659 0.657109C27.1568 0.238949 26.7386 0 26.2906 0H1.201C0.752966 0 0.334806 0.268817 0.125726 0.657109C-0.0833537 1.07527 -0.0236166 1.55317 0.245201 1.91159L10.7888 15.1732V23.8053C10.7888 24.2533 11.0278 24.6416 11.416 24.8507C11.5953 24.9403 11.7745 25 11.9836 25C12.2225 25 12.4614 24.9403 12.6705 24.7909L15.9859 22.491C16.4638 22.1326 16.7327 21.595 16.7327 21.0275V15.1434L27.2464 1.91159C27.5152 1.55317 27.5749 1.07527 27.3659 0.657109ZM15.6574 14.5759C15.5976 14.6655 15.5379 14.7849 15.5379 14.9343V20.9976C15.5379 21.2067 15.4483 21.3859 15.299 21.5054L11.9836 23.8053V14.9343C11.9836 14.7252 11.8939 14.546 11.7446 14.4564L4.9943 5.97372H15.8366C16.1652 5.97372 16.434 5.7049 16.434 5.37634C16.434 5.04779 16.1652 4.77897 15.8366 4.77897H4.18785C4.15798 4.77897 4.09825 4.77897 4.06838 4.77897L1.201 1.19474H26.2906L15.6574 14.5759Z" fill="#008242"/>
</svg>
