<svg width="20" height="15" viewBox="0 0 20 15" fill="none" xmlns="http://www.w3.org/2000/svg">
<path d="M19.5769 0.652187C19.1965 0.456367 18.7283 0.606094 18.5319 0.990625C17.3407 3.32504 14.1778 6.67172 10.0555 6.67172C6.35849 6.67172 3.07306 3.91813 1.57914 0.990586C1.38262 0.6075 0.914605 0.456289 0.533337 0.653242C0.152107 0.850195 0.0012314 1.31988 0.196508 1.70355C1.91293 5.07391 5.68751 8.23422 10.0555 8.23422C15.037 8.23422 18.6048 4.27516 19.9145 1.70355C20.11 1.31949 19.9588 0.84875 19.5769 0.652187ZM0.412955 9.04281L2.14329 7.47313C2.46376 7.18238 2.95485 7.21148 3.24056 7.52992C3.52794 7.85031 3.50269 8.3443 3.18408 8.63332L1.45374 10.203C1.13525 10.492 0.644008 10.4666 0.356473 10.1462C0.0690945 9.82582 0.094344 9.33184 0.412955 9.04281ZM17.9677 7.47313L19.698 9.04281C20.0166 9.33184 20.0418 9.82582 19.7544 10.1462C19.467 10.4666 18.9758 10.492 18.6572 10.203L16.9269 8.63332C16.6083 8.34434 16.583 7.85031 16.8704 7.52992C17.1564 7.21113 17.6476 7.18273 17.9677 7.47313ZM10.0555 10.5877C10.4845 10.5877 10.8324 10.9375 10.8324 11.369V13.7148C10.8324 14.1463 10.4845 14.4961 10.0555 14.4961C9.62637 14.4961 9.27854 14.1463 9.27854 13.7148V11.369C9.27858 10.9375 9.62641 10.5877 10.0555 10.5877Z" fill="#402F23"/>
</svg>
