<svg width="23" height="20" viewBox="0 0 23 20" fill="none" xmlns="http://www.w3.org/2000/svg">
<path d="M11.8814 1.0247L11.8814 1.0247C11.6543 0.858439 11.3457 0.858424 11.1187 1.02471L1.16428 8.31304L1.16427 8.31305C0.876591 8.52371 0.814062 8.9277 1.02475 9.21541C1.23543 9.50311 1.63945 9.56552 1.92711 9.35494L1.92711 9.35494L11.5 2.34581L21.0729 9.35488C21.1877 9.43904 21.3215 9.47962 21.4539 9.47962C21.6523 9.47962 21.8487 9.38821 21.9752 9.21539C22.186 8.9277 22.1234 8.52371 21.8357 8.31305L21.7767 8.39373L21.8357 8.31304L11.8814 1.0247Z" fill="#838384" stroke="white" stroke-width="0.2"/>
<path d="M18.4934 9.94333C18.4934 9.58676 18.7825 9.29771 19.139 9.29771C19.4956 9.29771 19.7846 9.58677 19.7847 9.94338V19.1741C19.7847 19.5306 19.4956 19.8197 19.139 19.8197H13.6828C13.3433 19.8197 13.0657 19.5576 13.0397 19.225C13.0396 19.2246 13.0396 19.2241 13.0396 19.2237L13.1393 19.2161C13.138 19.2035 13.1371 19.1898 13.1371 19.1741V13.8876C13.1371 12.9849 12.4028 12.2505 11.5 12.2505C10.5973 12.2505 9.86295 12.9848 9.86295 13.8876V19.1741C9.86295 19.1898 9.86213 19.2038 9.86081 19.2165L18.4934 9.94333ZM18.4934 9.94333V18.5283V9.94333Z" fill="#838384" stroke="white" stroke-width="0.2"/>
</svg>
