<svg width="31" height="31" viewBox="0 0 31 31" fill="none" xmlns="http://www.w3.org/2000/svg">
<circle cx="15.5" cy="15.5" r="15" fill="#C9652C" stroke="#C9652C"/>
<path d="M14.8286 16.05L17.7909 18.2717C18.0092 18.4354 18.3185 18.3912 18.4822 18.1729C18.6458 17.9547 18.6016 17.6454 18.3834 17.4817L15.6408 15.4057V11.2091C15.6408 10.9363 15.4199 10.7153 15.1471 10.7153C14.8743 10.7153 14.6534 10.9363 14.6534 11.2091V15.6525C14.6534 15.8164 14.722 15.9641 14.8286 16.05Z" fill="white"/>
<path d="M15.3939 8C11.7802 8 8.69418 10.6083 8.09185 14.1715L7.90423 13.8925C7.75143 13.6662 7.44433 13.6064 7.21796 13.7592C6.99159 13.912 6.93185 14.2191 7.08466 14.4455L8.0721 15.9266C8.15331 16.0501 8.28563 16.1308 8.43251 16.1464H8.48188C8.61272 16.1459 8.73788 16.0935 8.82995 16.0007L10.0643 14.7664C10.257 14.5736 10.257 14.2606 10.0643 14.0678C9.87145 13.875 9.55844 13.875 9.36564 14.0678L9.05953 14.3764C9.62805 10.8774 12.9253 8.50211 16.4241 9.07063C19.9228 9.63914 22.2986 12.9362 21.7301 16.4352C21.2252 19.5421 18.5416 21.8246 15.3939 21.8241C13.4087 21.8602 11.5311 20.9236 10.3654 19.316C10.2072 19.0939 9.89885 19.0418 9.67668 19.2C9.45451 19.3582 9.40242 19.6666 9.56066 19.8887C10.9105 21.758 13.0888 22.8493 15.3939 22.8116C19.4841 22.8116 22.7997 19.496 22.7997 15.4058C22.7997 11.3156 19.4841 8 15.3939 8Z" fill="white"/>
</svg>
