<svg width="31" height="31" viewBox="0 0 31 31" fill="none" xmlns="http://www.w3.org/2000/svg">
<circle cx="15.5" cy="15.5" r="15" fill="#0074A3" stroke="#0074A3"/>
<path d="M11.5485 8.01169L18.9952 8.04113C19.2521 8.04214 19.4595 8.25194 19.458 8.50941L19.4322 13.1739L18.5014 13.1702L18.5246 8.97218L12.0088 8.94642L11.9364 22.0069L18.4523 22.0327L18.4755 17.8346L19.4064 17.8383L19.3805 22.5028C19.3791 22.7603 19.1694 22.9684 18.9125 22.9674L11.4658 22.938C11.2089 22.9369 11.0016 22.7271 11.003 22.4697L11.0805 8.47629C11.0819 8.21881 11.2916 8.01067 11.5485 8.01169Z" fill="white"/>
<path d="M14.7709 15.0252L22.4989 15.055L20.51 13.0436L21.1726 12.3862L23.9523 15.1973C24.1334 15.3805 24.1318 15.6755 23.9485 15.8573L21.137 18.6469L20.4819 17.9844L22.4936 15.9884L14.7656 15.9587L14.7709 15.0252Z" fill="white"/>
</svg>
