<svg width="24" height="27" viewBox="0 0 24 27" fill="none" xmlns="http://www.w3.org/2000/svg">
<path d="M8.493 17.3745C6.25097 17.6654 4.37841 18.2132 3.05485 18.9318C1.70621 19.6639 0.9 20.5901 0.9 21.6241C0.9 22.2733 1.2223 22.8781 1.78832 23.4156C2.3539 23.9527 3.16873 24.4288 4.17217 24.8253C6.17958 25.6183 8.96203 26.1 12.0772 26.1C15.1924 26.1 17.9748 25.6183 19.9822 24.8253C20.9857 24.4288 21.8005 23.9527 22.3661 23.4156C22.9321 22.8781 23.2544 22.2733 23.2544 21.6241C23.2544 20.5901 22.4482 19.6639 21.0996 18.9318C19.7761 18.2132 17.9035 17.6654 15.6616 17.3745C15.6832 17.3394 15.7049 17.3041 15.7265 17.2683C17.9186 13.639 19.0299 10.4517 19.0139 7.79933M8.493 17.3745L5.24072 7.79761L5.14072 7.79704C5.1512 5.96401 5.8868 4.20965 7.18677 2.9173C8.48675 1.62495 10.2454 0.89969 12.0785 0.9C13.9115 0.900311 15.67 1.62616 16.9695 2.91895C18.269 4.21173 19.004 5.96632 19.0139 7.79933M8.493 17.3745C8.47138 17.3394 8.4497 17.304 8.42813 17.2683L8.51376 17.2166L8.493 17.3745ZM19.0139 7.79933C19.0139 7.79935 19.0139 7.79937 19.0139 7.79939L18.9139 7.79993L19.0139 7.79933ZM6.0778 7.80054L6.07779 7.79936C6.0733 7.00853 6.2252 6.22461 6.52476 5.49269C6.82432 4.76078 7.26563 4.09531 7.82331 3.53456C8.38098 2.97381 9.04402 2.52886 9.77428 2.22528C10.5045 1.9217 11.2876 1.76549 12.0785 1.76564C12.8693 1.7658 13.6523 1.9223 14.3825 2.22615C15.1126 2.53001 15.7755 2.97522 16.3329 3.53618C16.8904 4.09714 17.3315 4.76277 17.6307 5.4948C17.93 6.22683 18.0816 7.01081 18.0768 7.80164L18.0768 7.80285C18.0925 10.3935 16.8876 13.2975 15.5154 15.7559C14.1996 18.1133 12.7376 20.0476 12.0772 20.8814C11.4168 20.0476 9.95472 18.1132 8.63893 15.7555C7.26673 13.2968 6.06195 10.3922 6.0778 7.80054ZM11.7192 21.9268L11.7202 21.928C11.7642 21.9798 11.8189 22.0215 11.8805 22.05C11.9422 22.0785 12.0093 22.0933 12.0772 22.0933C12.1451 22.0933 12.2123 22.0785 12.2739 22.05C12.3355 22.0215 12.3902 21.9798 12.4342 21.928L12.4352 21.9268C13.3977 20.7547 14.2913 19.5276 15.1113 18.2518C17.2153 18.4885 19.0202 18.9629 20.2996 19.5669C20.9457 19.8719 21.4532 20.2078 21.7978 20.559C22.1424 20.9101 22.3175 21.2692 22.3175 21.6241C22.3175 22.0223 22.0816 22.4443 21.6059 22.8586C21.1316 23.2717 20.4306 23.6665 19.5312 24.009C17.7332 24.6938 15.1608 25.163 12.0772 25.163C8.99362 25.163 6.42117 24.6938 4.62323 24.009C3.72386 23.6665 3.02286 23.2717 2.54859 22.8586C2.07297 22.4443 1.83708 22.0223 1.83708 21.6241C1.83708 21.2695 2.01215 20.9104 2.35664 20.5593C2.70115 20.2082 3.20858 19.8723 3.85467 19.5672C5.13394 18.9631 6.93882 18.4885 9.0433 18.2518C9.86327 19.5276 10.7567 20.7547 11.7192 21.9268Z" fill="#838384" stroke="#838384" stroke-width="0.2"/>
<path d="M9.07674 23.0287L9.0771 23.0288C9.19484 23.0443 9.30231 23.1039 9.37776 23.1956C9.45321 23.2873 9.49102 23.4043 9.48353 23.5228C9.47605 23.6413 9.42384 23.7526 9.33745 23.8341C9.25107 23.9156 9.13696 23.9613 9.0182 23.9618L9.01808 23.9618L9.07674 23.0287ZM9.07674 23.0287C7.44564 22.82 6.1504 22.4537 5.42162 22.006M9.07674 23.0287L5.42162 22.006M5.42162 22.006C5.3694 21.9727 5.31111 21.9502 5.25012 21.9396C5.18881 21.929 5.126 21.9307 5.06536 21.9446C5.00471 21.9585 4.94744 21.9843 4.89689 22.0206C4.84634 22.0569 4.80352 22.1028 4.77093 22.1558C4.73834 22.2088 4.71663 22.2678 4.70707 22.3293C4.69752 22.3908 4.7003 22.4535 4.71526 22.5139C4.73022 22.5743 4.75706 22.6311 4.79422 22.681C4.83119 22.7307 4.87764 22.7725 4.93087 22.8041C5.78366 23.3281 7.21661 23.7353 8.95779 23.9581L5.42162 22.006ZM9.30053 23.2592C9.24119 23.187 9.15666 23.1401 9.06404 23.1279L4.98254 22.7185C5.81712 23.2315 7.23357 23.6367 8.97054 23.8589C8.98618 23.8609 9.00194 23.8619 9.01771 23.8618C9.11113 23.8614 9.20088 23.8255 9.26883 23.7614C9.33678 23.6973 9.37785 23.6097 9.38373 23.5165C9.38962 23.4233 9.35988 23.3313 9.30053 23.2592Z" fill="#838384" stroke="#838384" stroke-width="0.2"/>
<path d="M11.0947 24.1317L11.0947 24.1317C11.0332 24.1294 10.9727 24.1151 10.9167 24.0894C10.8608 24.0638 10.8104 24.0274 10.7685 23.9823C10.7266 23.9372 10.694 23.8843 10.6725 23.8265C10.6511 23.7688 10.6412 23.7075 10.6435 23.646C10.6457 23.5844 10.6601 23.524 10.6857 23.468C10.7114 23.412 10.7478 23.3617 10.7929 23.3198C10.838 23.2779 10.8909 23.2453 10.9486 23.2238C11.0063 23.2024 11.0677 23.1925 11.1292 23.1948L11.0947 24.1317ZM11.0947 24.1317C11.4198 24.1435 11.75 24.1497 12.0772 24.1497C12.2924 24.1497 12.5052 24.1471 12.7158 24.1421C12.84 24.1392 12.958 24.0871 13.0438 23.9972C13.1294 23.9075 13.176 23.7874 13.1733 23.6634M11.0947 24.1317L12.6933 23.2048M12.6933 23.2048C12.755 23.2027 12.8165 23.213 12.8741 23.2349C12.932 23.257 12.985 23.2904 13.0297 23.3332C13.0745 23.3759 13.1103 23.4273 13.135 23.4841C13.1595 23.5407 13.1726 23.6017 13.1733 23.6634M12.6933 23.2048C12.1817 23.2166 11.649 23.2138 11.1292 23.1948L12.6933 23.2048ZM13.1733 23.6634C13.1733 23.6637 13.1733 23.6639 13.1733 23.6641L13.0733 23.6651L13.1733 23.6628C13.1733 23.663 13.1733 23.6632 13.1733 23.6634Z" fill="#838384" stroke="#838384" stroke-width="0.2"/>
<path d="M15.2892 7.79982V7.7997C15.2891 7.16441 15.1006 6.54341 14.7476 6.01522C14.3946 5.48704 13.8929 5.0754 13.3059 4.83235C12.7189 4.58931 12.0731 4.52577 11.45 4.64978C10.8269 4.77379 10.2546 5.07977 9.80546 5.52904C9.35629 5.9783 9.05042 6.55067 8.92654 7.17377C8.80266 7.79687 8.86632 8.44271 9.10949 9.02962C9.35266 9.61654 9.7644 10.1182 10.2927 10.4711C10.8209 10.824 11.4419 11.0123 12.0772 11.0123H12.0774C12.929 11.0112 13.7454 10.6724 14.3475 10.0702C14.9497 9.46794 15.2883 8.65144 15.2892 7.79982ZM9.80216 7.79973C9.80224 7.34978 9.93574 6.90996 10.1858 6.53588C10.4358 6.1618 10.7912 5.87026 11.2069 5.69813C11.6226 5.526 12.08 5.481 12.5213 5.56883C12.9626 5.65666 13.368 5.87337 13.6861 6.19156C14.0042 6.50975 14.2209 6.91513 14.3086 7.35644C14.3964 7.79775 14.3513 8.25517 14.1791 8.67086C14.0069 9.08655 13.7153 9.44185 13.3412 9.69182C12.9671 9.94177 12.5273 10.0752 12.0773 10.0752C11.4741 10.0746 10.8957 9.8346 10.4691 9.40797C10.0426 8.98135 9.8027 8.40291 9.80216 7.79963L9.70216 7.79972L9.80216 7.79973Z" fill="#838384" stroke="#838384" stroke-width="0.2"/>
</svg>
