<svg width="31" height="31" viewBox="0 0 31 31" fill="none" xmlns="http://www.w3.org/2000/svg">
<circle cx="15.5" cy="15.5" r="15" fill="#13C2C2" stroke="#13C2C2"/>
<path d="M22.9268 8.40373L21.5905 7.07295C21.5437 7.02623 21.4801 7 21.4138 7H19.2758C18.9906 7 18.7585 7.23109 18.7585 7.51518V11.7738C18.7585 12.0579 18.9906 12.2889 19.2758 12.2889H20.6293V13.1046C20.6293 13.2608 20.5016 13.3878 20.3448 13.3878H15.7434C15.6653 13.157 15.4818 12.9743 15.25 12.8964V12.2889H16.6034C16.8887 12.2889 17.1207 12.0578 17.1207 11.7737V8.57984C17.1207 8.5138 17.0944 8.45045 17.0475 8.40377L15.7113 7.07295C15.6644 7.02623 15.6008 7 15.5345 7H13.3966C13.1113 7 12.8793 7.23109 12.8793 7.51518V11.7738C12.8793 12.0579 13.1113 12.2889 13.3966 12.2889H14.75V12.8965C14.5182 12.9743 14.3347 13.1571 14.2566 13.3879H9.65519C9.49833 13.3879 9.37075 13.2608 9.37075 13.1046V12.289H10.7242C11.0094 12.289 11.2415 12.0579 11.2415 11.7738V8.57984C11.2415 8.5138 11.2151 8.45045 11.1682 8.40377L9.83198 7.07295C9.7851 7.02623 9.72153 7 9.65519 7H7.51727C7.23203 7 7 7.23109 7 7.51518V11.7738C7 12.0579 7.23203 12.2889 7.51727 12.2889H8.87068V13.1046C8.87068 13.5354 9.22263 13.8859 9.65519 13.8859H14.2566C14.3347 14.1167 14.5182 14.2994 14.75 14.3773V16.0472C14.6206 16.0362 14.5004 15.981 14.4075 15.8885L13.8082 15.2916C13.6095 15.0938 13.3454 14.9848 13.0645 14.9848H10.7241C10.1442 14.9848 9.67239 15.4547 9.67239 16.0323V22.9525C9.67239 23.53 10.1441 23.9999 10.7239 24H10.724H19.4997C19.9531 24 20.354 23.7122 20.4975 23.2837L22.3354 17.7922C22.3879 17.6355 22.3613 17.462 22.2643 17.328C22.1674 17.1941 22.0105 17.1141 21.8447 17.1141H20.3276V17.0969C20.3276 16.5193 19.8558 16.0494 19.2758 16.0494H16.0689C15.9308 16.0494 15.8189 16.1609 15.8189 16.2985C15.8189 16.436 15.9308 16.5475 16.0689 16.5475H19.2758C19.58 16.5475 19.8275 16.794 19.8275 17.0969V17.1141H15.25V14.3773C15.4818 14.2994 15.6653 14.1167 15.7434 13.8859H20.3448C20.7774 13.8859 21.1293 13.5353 21.1293 13.1045V12.2889H22.4827C22.768 12.2889 23 12.0578 23 11.7737V8.57984C23 8.51377 22.9737 8.45045 22.9268 8.40373ZM15.7845 7.8502L16.267 8.33079H15.8017C15.7922 8.33079 15.7845 8.32312 15.7845 8.31365V7.8502ZM13.3794 11.7738V7.51518C13.3794 7.50572 13.3871 7.49805 13.3966 7.49805H15.2844V8.31365C15.2844 8.59774 15.5165 8.82884 15.8017 8.82884H16.6206V11.7738C16.6206 11.7832 16.6129 11.7909 16.6034 11.7909H13.3966C13.3871 11.7909 13.3794 11.7832 13.3794 11.7738ZM9.90522 7.8502L10.3878 8.33079H9.92242C9.91292 8.33079 9.90522 8.32312 9.90522 8.31365V7.8502ZM7.50007 11.7738V7.51518C7.50007 7.50572 7.50777 7.49805 7.51727 7.49805H9.40515V8.31365C9.40515 8.59774 9.63719 8.82884 9.92242 8.82884H10.7414V11.7738C10.7414 11.7832 10.7336 11.7909 10.7241 11.7909H7.51727C7.5078 11.7909 7.50007 11.7832 7.50007 11.7738ZM15 13.3536C15.1567 13.3536 15.2842 13.4804 15.2844 13.6364C15.2844 13.6366 15.2844 13.6368 15.2844 13.6369C15.2844 13.637 15.2844 13.6372 15.2844 13.6374C15.2841 13.7934 15.1567 13.9202 15 13.9202C14.8431 13.9202 14.7156 13.7931 14.7156 13.6369C14.7156 13.4807 14.8431 13.3536 15 13.3536ZM21.8586 17.6193C21.8638 17.6264 21.8619 17.632 21.861 17.6347L20.0231 23.1263C19.9479 23.351 19.7375 23.502 19.4997 23.502H10.7242C10.5678 23.502 10.4267 23.4365 10.3262 23.3321L12.1148 17.9879C12.1901 17.7631 12.4004 17.6122 12.6382 17.6122H21.8447C21.8475 17.6122 21.8535 17.6122 21.8586 17.6193ZM12.6382 17.1141C12.1848 17.1141 11.7838 17.402 11.6404 17.8304L10.1725 22.2165V16.0323C10.1725 15.7294 10.4199 15.4829 10.7241 15.4829H13.0645C13.2118 15.4829 13.3504 15.54 13.4546 15.6438L14.0539 16.2407C14.2412 16.4274 14.4869 16.5348 14.7499 16.5464V17.1141H12.6382ZM21.6638 7.8502L22.1463 8.33079H21.681C21.6715 8.33079 21.6638 8.32312 21.6638 8.31365V7.8502ZM22.4827 11.7909H19.2759C19.2664 11.7909 19.2586 11.7833 19.2586 11.7738V7.51518C19.2586 7.50572 19.2664 7.49805 19.2759 7.49805H21.1638V8.31365C21.1638 8.59774 21.3958 8.82884 21.681 8.82884H22.4999V11.7738C22.4999 11.7832 22.4922 11.7909 22.4827 11.7909Z" fill="white"/>
</svg>
