<svg width="11" height="15" viewBox="0 0 11 15" fill="none" xmlns="http://www.w3.org/2000/svg">
<path d="M5.38919 0C2.41757 0 0 2.41757 0 5.38916C0 9.07699 4.8228 14.4909 5.02813 14.7196C5.221 14.9344 5.55773 14.9341 5.75025 14.7196C5.95558 14.4909 10.7784 9.07699 10.7784 5.38916C10.7783 2.41757 8.36078 0 5.38919 0ZM5.38919 8.1006C3.8941 8.1006 2.67778 6.88426 2.67778 5.38916C2.67778 3.89407 3.89413 2.67775 5.38919 2.67775C6.88426 2.67775 8.10057 3.8941 8.10057 5.38919C8.10057 6.88428 6.88426 8.1006 5.38919 8.1006Z" fill="#DB3A3C"/>
</svg>
