<svg width="42" height="39" fill="none" xmlns="http://www.w3.org/2000/svg"><path d="M14.79 33.49c1.6.7 3.47.26 4.77-.98l-7.16-3.16a4.2 4.2 0 0 0 2.39 4.14ZM29.17 22.97l.86-1.8c1.81-3.84.98-8.13-1.78-10.6l.57-1.2c.64-1.36.13-2.92-1.14-3.47-1.27-.56-2.83.1-3.47 1.47l-.57 1.19c-3.76-.36-7.67 1.86-9.49 5.7l-.85 1.8a15.47 15.47 0 0 1-7.64 7.54.99.99 0 0 0-.57.83.8.8 0 0 0 .47.8l21.51 9.37c.3.13.68.05.94-.2a.96.96 0 0 0 .27-.96c-1.02-3.38-.7-7.1.9-10.47Zm-2.3-13.4a8 8 0 0 0-1.53-.67l.4-.86c.22-.46.74-.68 1.16-.5.43.2.6.71.38 1.17l-.4.86ZM32.25 22.54c-.21.44-.05.95.37 1.14.42.18.93-.04 1.14-.49 1.54-3.24 1.8-6.81.75-10.04a.78.78 0 0 0-1.07-.47.95.95 0 0 0-.54 1.15c.91 2.8.68 5.9-.65 8.7ZM10.6 13.58c.42.18.93-.04 1.14-.48a12.5 12.5 0 0 1 6.41-6.2c.45-.2.69-.7.55-1.15a.78.78 0 0 0-1.08-.47 14.43 14.43 0 0 0-7.4 7.16c-.2.45-.04.96.38 1.14Z" fill="#008242"/></svg>