<svg width="20" height="26" fill="none" xmlns="http://www.w3.org/2000/svg"><path d="M17.45 3.34h-2.3V2.3c0-.33-.36-.48-.7-.48h-1.78C12.24.61 11.18 0 9.97 0a2.76 2.76 0 0 0-2.7 1.82H5.52c-.34 0-.67.15-.67.48v1.04h-2.3A2.58 2.58 0 0 0 0 5.79v17.36c0 1.34 1.21 2.3 2.55 2.3h14.9c1.34 0 2.55-.96 2.55-2.3V5.8a2.58 2.58 0 0 0-2.55-2.45Zm-11.39-.3h1.67c.29-.04.52-.26.57-.55.18-.78.87-1.35 1.67-1.37.8.03 1.47.59 1.64 1.37.05.3.3.52.6.54h1.73v2.43H6.06V3.03ZM18.8 23.14c0 .67-.67 1.1-1.34 1.1H2.55c-.67 0-1.34-.43-1.34-1.1V5.8c.06-.7.64-1.23 1.34-1.24h2.3v1.54c.03.34.32.6.67.58h8.93c.35.02.65-.23.7-.58V4.55h2.3c.7.01 1.28.55 1.34 1.24v17.36Z" fill="#838384"/><path d="M7.67 13.55a.6.6 0 0 0-.85-.03l-1.94 1.85-.82-.85a.6.6 0 0 0-.85-.03.64.64 0 0 0 0 .88l1.24 1.27c.11.12.27.19.43.18a.6.6 0 0 0 .42-.18l2.37-2.24a.58.58 0 0 0 0-.85ZM16.36 14.85H9.4a.6.6 0 1 0 0 1.21h6.97a.6.6 0 1 0 0-1.2ZM7.67 8.7a.6.6 0 0 0-.85-.03l-1.94 1.85-.82-.85a.6.6 0 0 0-.85-.03.64.64 0 0 0 0 .88l1.24 1.27c.11.12.27.19.43.18a.6.6 0 0 0 .42-.18l2.37-2.24a.58.58 0 0 0 0-.85ZM16.36 10H9.4a.6.6 0 1 0 0 1.21h6.97a.6.6 0 1 0 0-1.2ZM7.67 18.4a.6.6 0 0 0-.85-.03L4.88 20.2l-.82-.84a.6.6 0 0 0-.85-.03.64.64 0 0 0 0 .87l1.24 1.28c.11.12.27.18.43.18a.6.6 0 0 0 .42-.18l2.37-2.25a.58.58 0 0 0 0-.84ZM16.36 19.7H9.4a.6.6 0 0 0 0 1.21h6.97a.6.6 0 1 0 0-1.21Z" fill="#838384"/></svg>