<svg width="24" height="24" fill="none" xmlns="http://www.w3.org/2000/svg"><path d="M13 18a1 1 0 1 1-2 0 1 1 0 0 1 2 0Z" fill="#838384"/><path d="M12 24C5.38 24 0 18.62 0 12S5.38 0 12 0s12 5.38 12 12-5.38 12-12 12Zm0-22.5a10.51 10.51 0 0 0 0 21 10.51 10.51 0 0 0 0-21Z" fill="#838384"/><path d="M12 14.75a.75.75 0 0 1-.75-.75v-1.01c0-.95.6-1.8 1.5-2.12 1.2-.42 2-1.7 2-2.62a2.75 2.75 0 0 0-5.5 0 .75.75 0 0 1-1.5 0 4.25 4.25 0 0 1 8.5 0 4.6 4.6 0 0 1-3 4.03c-.3.1-.5.4-.5.71V14c0 .41-.34.75-.75.75Z" fill="#838384"/></svg>