<svg width="22" height="22" fill="none" xmlns="http://www.w3.org/2000/svg"><path d="M19.7 16.36a.86.86 0 0 0-1.2.17c-.16.21-.33.42-.5.61a.86.86 0 0 0 1.29 1.14c.2-.23.4-.47.58-.72a.86.86 0 0 0-.17-1.2ZM21.13 12.33a.86.86 0 0 0-1.02.65 9.3 9.3 0 0 1-.2.76.86.86 0 1 0 1.64.51c.1-.3.18-.6.24-.9a.86.86 0 0 0-.66-1.02ZM15.56 19.11a9.3 9.3 0 0 1-.7.35.86.86 0 0 0 .7 1.57 11 11 0 0 0 .84-.42.86.86 0 1 0-.84-1.5ZM10.14 4.13v6.51L7 13.8A.86.86 0 1 0 8.2 15l3.4-3.4a.86.86 0 0 0 .26-.61V4.12a.86.86 0 1 0-1.72 0Z" fill="#008242"/><path d="M21.14 1.85a.86.86 0 0 0-.86.86v2.38A11.03 11.03 0 0 0 3.22 3.22 10.93 10.93 0 0 0 0 11c0 2.94 1.14 5.7 3.22 7.78A10.93 10.93 0 0 0 11 22h.04c.31 0 .63-.01.93-.04a.86.86 0 0 0-.14-1.71c-.26.02-.53.03-.79.03H11a9.3 9.3 0 0 1 0-18.56 9.3 9.3 0 0 1 7.99 4.55h-2.36a.86.86 0 1 0 0 1.72h2.62A2.73 2.73 0 0 0 22 5.24V2.71a.86.86 0 0 0-.86-.86Z" fill="#008242"/></svg>