<svg width="17" height="20" viewBox="0 0 17 20" fill="none" xmlns="http://www.w3.org/2000/svg">
<path d="M7.98174 9.35844C9.26741 9.35844 10.3807 8.89732 11.2903 7.98753C12.2 7.0779 12.6611 5.9649 12.6611 4.67907C12.6611 3.39369 12.2 2.28054 11.2902 1.37061C10.3804 0.461119 9.26727 0 7.98174 0C6.69591 0 5.58291 0.461119 4.67327 1.37076C3.76363 2.2804 3.30237 3.39354 3.30237 4.67907C3.30237 5.9649 3.76363 7.07804 4.67342 7.98768C5.58321 8.89717 6.69636 9.35844 7.98174 9.35844Z" fill="#D6E5DE"/>
<path d="M16.1694 14.9131C16.1432 14.5345 16.0901 14.1216 16.012 13.6855C15.9331 13.2462 15.8316 12.8309 15.71 12.4513C15.5845 12.0589 15.4138 11.6715 15.2027 11.3002C14.9836 10.9148 14.7263 10.5792 14.4376 10.3031C14.1356 10.0142 13.766 9.78193 13.3385 9.61251C12.9125 9.44398 12.4404 9.35861 11.9354 9.35861C11.7371 9.35861 11.5453 9.43998 11.1749 9.68114C10.9469 9.82981 10.6803 10.0017 10.3827 10.1919C10.1282 10.3541 9.78339 10.506 9.35755 10.6435C8.94209 10.778 8.52024 10.8462 8.10389 10.8462C7.68753 10.8462 7.26584 10.778 6.84993 10.6435C6.42453 10.5061 6.07977 10.3542 5.82557 10.1921C5.53076 10.0037 5.26396 9.83173 5.03258 9.68099C4.66262 9.43983 4.47067 9.35846 4.27235 9.35846C3.76721 9.35846 3.29527 9.44398 2.86943 9.61266C2.44225 9.78178 2.07244 10.014 1.77022 10.3032C1.48163 10.5795 1.22417 10.9149 1.00539 11.3002C0.79447 11.6715 0.623718 12.0588 0.498026 12.4514C0.376632 12.831 0.2751 13.2462 0.196246 13.6855C0.118133 14.121 0.0650695 14.5341 0.0388342 14.9135C0.0130435 15.2853 0 15.6711 0 16.0608C0 17.0749 0.322383 17.8959 0.958107 18.5014C1.58598 19.0989 2.41676 19.402 3.42704 19.402H12.7816C13.7919 19.402 14.6224 19.099 15.2504 18.5014C15.8863 17.8963 16.2087 17.0752 16.2087 16.0606C16.2085 15.6692 16.1953 15.283 16.1694 14.9131Z" fill="#D6E5DE"/>
</svg>
